<?xml version="1.0" encoding="utf-8"?>
<!-- Generator: Adobe Illustrator 19.0.0, SVG Export Plug-In . SVG Version: 6.00 Build 0)  -->
<svg version="1.1" id="Layer_1" xmlns="http://www.w3.org/2000/svg" xmlns:xlink="http://www.w3.org/1999/xlink" x="0px" y="0px"
	 viewBox="0 0 125 28.9" style="enable-background:new 0 0 125 28.9;" xml:space="preserve">
<style type="text/css">
	.st0{fill:#E40521;}
</style>
<g id="XMLID_59_">
	<polygon id="XMLID_32_" points="7.8,22.3 10.5,22.3 10.5,28 11.4,28 11.4,22.3 14.1,22.3 14.1,21.5 7.8,21.5 	"/>
	<path id="XMLID_31_" d="M17.5,23.2c-0.8,0-1.5,0.3-2,1v-2.7h-0.9V28h0.9v-2.1c0-1.5,0.9-2,1.8-2c0.9,0,1.4,0.5,1.4,1.6V28h0.9v-2.6
		C19.7,23.9,18.8,23.2,17.5,23.2z"/>
	<path id="XMLID_87_" d="M23.4,23.2c-1.7,0-2.7,0.9-2.7,2.6c0,1.5,1,2.4,2.7,2.4c1.2,0,2.3-0.4,2.5-1.6h-1c-0.2,0.7-0.8,0.9-1.6,0.9
		c-1.1,0-1.6-0.7-1.7-1.6H26v-0.3C26,24.1,25.1,23.2,23.4,23.2z M21.7,25.3c0.1-1,0.8-1.5,1.7-1.5c0.8,0,1.6,0.4,1.6,1.5H21.7z"/>
	<path id="XMLID_28_" d="M59.2,24.3l0-0.9h-0.9c0,0.4,0,0.7,0,1.1V28h0.9v-2.2c0-1.1,0.5-1.7,1.6-1.7c0.2,0,0.4,0,0.7,0.1v-0.8
		c-0.1,0-0.3,0-0.6,0C60.1,23.3,59.5,23.8,59.2,24.3z"/>
	<path id="XMLID_27_" d="M86.7,24.3l0-0.9h-0.9c0,0.4,0,0.7,0,1.1V28h0.9v-2.2c0-1.1,0.5-1.7,1.6-1.7c0.2,0,0.4,0,0.7,0.1v-0.8
		c-0.1,0-0.3,0-0.6,0C87.6,23.3,87,23.8,86.7,24.3z"/>
	<polygon id="XMLID_26_" points="48.8,27.3 47.2,23.4 46,23.4 44.5,27.3 43,23.4 42,23.4 43.8,28 45,28 46.6,24.1 48.2,28 49.4,28 
		51.2,23.4 50.3,23.4 	"/>
	<path id="XMLID_81_" d="M32.5,21.5l-2.8,0V28l0.9,0v-2.5h2c1.7,0,2.5-0.9,2.5-2.1C35.2,22.4,34.5,21.5,32.5,21.5z M32.6,24.8h-1.9
		v-2.6h1.9c1.3,0,1.7,0.5,1.7,1.2C34.2,24.3,33.7,24.8,32.6,24.8z"/>
	<path id="XMLID_78_" d="M38.6,23.2c-1.9,0-2.9,1-2.9,2.5c0,1.6,1,2.5,2.9,2.5c1.9,0,2.9-0.9,2.9-2.5C41.4,24.1,40.5,23.2,38.6,23.2
		z M38.6,27.6c-1.3,0-1.9-0.8-1.9-1.9c0-1.1,0.7-1.9,1.9-1.9c1.3,0,1.9,0.8,1.9,1.9C40.5,26.7,39.8,27.6,38.6,27.6z"/>
	<path id="XMLID_75_" d="M54.5,23.2c-1.7,0-2.7,0.9-2.7,2.6c0,1.5,1,2.4,2.7,2.4c1.2,0,2.3-0.4,2.5-1.6h-1c-0.2,0.7-0.8,0.9-1.5,0.9
		c-1.1,0-1.6-0.7-1.7-1.6H57v-0.3C57,24.1,56.1,23.2,54.5,23.2z M52.7,25.3c0.1-1,0.8-1.5,1.7-1.5c0.8,0,1.6,0.4,1.6,1.5H52.7z"/>
	<path id="XMLID_72_" d="M92.2,23.2c-1.7,0-2.7,0.9-2.7,2.6c0,1.5,1,2.4,2.7,2.4c1.2,0,2.3-0.4,2.5-1.6h-0.9
		c-0.2,0.7-0.8,0.9-1.5,0.9c-1.1,0-1.6-0.7-1.7-1.6h4.3v-0.3C94.7,24.1,93.8,23.2,92.2,23.2z M90.4,25.3c0.1-1,0.8-1.5,1.7-1.5
		c0.8,0,1.6,0.4,1.6,1.5H90.4z"/>
	<path id="XMLID_17_" d="M71.5,23.2v0.2h-1.1V24h1.1v4h0.9v-4h1.9v-0.6h-1.9V23c0-0.7,0.3-1,1-1c0.2,0,0.6,0,1,0.1v-0.7
		c-0.3-0.1-0.7-0.1-1.2-0.1C71.9,21.4,71.5,22.1,71.5,23.2z"/>
	<path id="XMLID_68_" d="M67,23.2c-1.9,0-2.9,1-2.9,2.5c0,1.6,1,2.5,2.9,2.5c1.9,0,2.9-0.9,2.9-2.5C69.9,24.1,68.9,23.2,67,23.2z
		 M67,27.6c-1.3,0-1.9-0.8-1.9-1.9c0-1.1,0.7-1.9,1.9-1.9c1.3,0,1.9,0.8,1.9,1.9C68.9,26.7,68.3,27.6,67,27.6z"/>
	<path id="XMLID_14_" d="M108.3,23.2c-1,0-1.6,0.6-1.8,1.2c-0.3-0.8-1-1.2-1.7-1.2c-0.6,0-1.3,0.3-1.7,1l0-0.8h-0.9
		c0,0.4,0,0.7,0,1.1V28h0.9v-2.2c0-1.4,0.8-1.9,1.5-1.9c0.8,0,1.1,0.5,1.1,1.8V28h0.9v-2.2c0-1.6,1-1.9,1.5-1.9
		c0.9,0,1.2,0.6,1.2,1.8V28h0.9v-2.7C110.3,23.8,109.4,23.2,108.3,23.2z"/>
	<path id="XMLID_13_" d="M115,25.5l-1.5-0.3c-0.7-0.1-1-0.3-1-0.6c0-0.5,0.5-0.7,1.3-0.7c0.7,0,1.3,0.2,1.3,0.7h0.9
		c0-1.1-1.2-1.4-2.2-1.4c-1.2,0-2.3,0.4-2.3,1.4c0,0.7,0.5,1,1.3,1.2l1.5,0.3c0.5,0.1,1,0.2,1,0.6c0,0.5-0.5,0.8-1.5,0.8
		c-0.8,0-1.4-0.2-1.5-0.9h-1c0.1,1.1,1.1,1.5,2.4,1.5c1.7,0,2.6-0.5,2.6-1.5C116.3,26,115.9,25.7,115,25.5z"/>
	<path id="XMLID_63_" d="M80.8,21.5h-2.7V28h2.8c2.3,0,3.6-1.2,3.6-3.2C84.4,22.7,83.3,21.5,80.8,21.5z M80.7,27.3H79v-5h1.6
		c2.3,0,2.9,0.9,2.9,2.5C83.4,26.1,82.9,27.3,80.7,27.3z"/>
	<path id="XMLID_60_" d="M100.7,24.8c0-1.1-0.9-1.6-2.2-1.6c-1,0-2.2,0.3-2.3,1.4h1c0.1-0.5,0.5-0.8,1.3-0.8c0.8,0,1.3,0.3,1.3,1.1
		v0.2h-0.5c-1,0-3.4-0.1-3.4,1.5c0,0.9,0.8,1.5,2,1.5c0.9,0,1.5-0.1,2-0.8l0.1,0.6h0.8c0-0.3,0-0.5,0-0.9V24.8z M99.8,26
		c0,1.1-0.6,1.6-1.7,1.6c-0.9,0-1.2-0.4-1.2-0.9c0-1,1.8-0.9,2.5-0.9h0.5V26z"/>
</g>
<g id="XMLID_47_">
	<path id="XMLID_8_" class="st0" d="M14.9,2.7l1.9,0.2c0.8,0.1,0.9,0.8,0.9,1.3v2.2H9V4.2C9,3.7,9.1,3,10,2.9l1.9-0.2V0.8H0.5v1.9
		l1.9,0.2C3.3,3,3.4,3.7,3.4,4.2v7.3c0,0.5-0.1,1.2-0.9,1.3L0.5,13v1.9h11.3V13L10,12.8C9.1,12.7,9,11.9,9,11.5V9.3h8.7v2.2
		c0,0.5-0.1,1.2-0.9,1.3L14.9,13v1.9h11.3V13l-1.9-0.2c-0.8-0.1-0.9-0.8-0.9-1.3V4.2c0-0.5,0.1-1.2,0.9-1.3l1.9-0.2V0.8H14.9V2.7z"
		/>
	<path id="XMLID_55_" class="st0" d="M90.2,0.8h-14v1.9L78,2.9c0.6,0.1,1,0.3,1,1.2v7.5c0,0.5-0.1,1.2-0.9,1.3L76.1,13v1.9l14.1,0
		c5.1,0,9.2-2,9.2-7C99.5,2.8,95.3,0.8,90.2,0.8z M89.2,12.2l-4.7,0V3.5h4.7C92,3.5,93,4.8,93,7.8C93,10.9,92,12.2,89.2,12.2z"/>
	<path id="XMLID_52_" class="st0" d="M123.2,12.8c-0.9-0.1-1.2-0.7-1.5-1.1l-6.5-9.9c-0.5-0.7-0.8-0.9-1.5-0.9H103v1.9l2.6,0.3
		c0.3,0,0.9,0.5,0.4,1.2l-4.8,7.8c-0.2,0.3-0.4,0.7-1,0.8L98.3,13v1.9h9V13l-1.6-0.2c-0.7-0.1-1-0.5-0.7-1.1l0.7-1.2h8.7l0.6,1
		c0.6,0.9-0.1,1.2-0.8,1.3l-1.6,0.2v1.9H125V13L123.2,12.8z M107.4,8.1l2.7-4.3l2.8,4.3H107.4z"/>
	<path id="XMLID_3_" class="st0" d="M66.2,2.7l1.9,0.2C68.9,3,69,3.7,69,4.2v7.1l-7.5-9.8c-0.3-0.5-0.6-0.6-1.4-0.6h-9.7v1.9
		l1.9,0.2c0.8,0.1,0.9,0.8,0.9,1.3v7.3c0,0.5-0.1,1.2-0.9,1.3L50.4,13v1.9h9V13l-1.9-0.2c-0.8-0.1-0.9-0.8-0.9-1.3V4.4l7.5,9.8
		c0.3,0.5,0.6,0.6,1.4,0.6h0.1h6.8V4.2c0-0.5,0.1-1.2,0.9-1.3l1.9-0.2V0.8h-9V2.7z"/>
	<path id="XMLID_48_" class="st0" d="M38.3,0.3c-9.2,0-11.5,4-11.5,7.5s2.4,7.5,11.5,7.5c9.2,0,11.5-4,11.5-7.5S47.5,0.3,38.3,0.3z
		 M38.3,12.7c-3.6,0-5-1.5-5-4.8c0-3.4,1.5-4.8,5-4.8c3.6,0,5,1.5,5,4.8C43.3,11.2,41.8,12.7,38.3,12.7z"/>
</g>
</svg>
